<svg width="138" height="175" viewBox="0 0 138 175" fill="none" xmlns="http://www.w3.org/2000/svg">
<g clip-path="url(#clip0_261_1740)">
<path opacity="0.708" fill-rule="evenodd" clip-rule="evenodd" d="M55.2441 92.053L93.7321 106.473L55.2441 120.602V92.053Z" fill="#EFF6FC"/>
<path fill-rule="evenodd" clip-rule="evenodd" d="M55.2449 92.1228L16.7559 106.091L55.2449 120.673V92.1228Z" fill="#F3F8FC"/>
<path fill-rule="evenodd" clip-rule="evenodd" d="M55.7062 120.569L94.5832 106.445L55.7062 91.9189L16.1992 106.311L55.0742 120.38L55.7062 120.569Z" stroke="#368CD7" stroke-linecap="round" stroke-linejoin="round"/>
<path fill-rule="evenodd" clip-rule="evenodd" d="M55.6752 91.902L71.2832 82.749L110.88 97.487L94.4112 106.409L105.257 124.312L65.6612 138.591L55.6752 120.398L55.1242 121.048L41.4412 137.209L1.96119 122.585L16.2512 106.237L1.61719 90.462L40.7522 76.877L55.6752 91.902Z" stroke="#368CD7" stroke-linecap="round" stroke-linejoin="round"/>
<path d="M14.7695 127.462V145.864L55.2815 159.837L94.4615 145.752L94.6935 128.37" stroke="#368CD7" stroke-linecap="round" stroke-linejoin="round"/>
<path d="M55.2363 92.0525L55.6241 120.215M55.7422 120.886L55.2363 160.848L55.7422 120.886Z" stroke="#368CD7" stroke-linecap="round" stroke-linejoin="round"/>
<path fill-rule="evenodd" clip-rule="evenodd" d="M86.5391 22.423L130.381 3.69995L93.4761 24.432L95.3871 39.087L86.5391 22.423Z" fill="#F3F8FC"/>
<path fill-rule="evenodd" clip-rule="evenodd" d="M92.9434 24.4749L107.788 29.3119L96.2424 40.0699L92.9434 24.4749Z" fill="#DBEAF8"/>
<path fill-rule="evenodd" clip-rule="evenodd" d="M92.959 24.4219L114.379 31.4089L136.138 1.05786L92.959 24.4219Z" stroke="#368CD7" stroke-linecap="round" stroke-linejoin="round"/>
<path fill-rule="evenodd" clip-rule="evenodd" d="M136.175 0.9729L77.4609 19.3189L86.9249 22.3039L136.175 0.9729Z" stroke="#368CD7" stroke-linecap="round" stroke-linejoin="round"/>
<path fill-rule="evenodd" clip-rule="evenodd" d="M107.812 29.417L92.8984 24.451L96.0394 40.514L86.5664 22.304L96.0394 40.514L107.812 29.417Z" stroke="#368CD7" stroke-linecap="round" stroke-linejoin="round"/>
<path fill-rule="evenodd" clip-rule="evenodd" d="M0.605469 153.29L56.8085 174L113.915 149.786L95.0955 146.262L55.2535 160.589L14.2705 146.495L0.605469 153.29Z" fill="#DCEBF9" stroke="#DCEBF9" stroke-width="0.5" stroke-linecap="round" stroke-linejoin="round"/>
<path d="M89.0483 45.8525C87.8058 47.361 85.3882 48.7435 81.7955 50L70.2418 55.4569C70.2418 55.4569 27.9708 71.064 51.7652 100.042C62.7192 113.386 59.1896 115.994 59.1896 115.994" stroke="#83B8E8" stroke-width="1.5" stroke-linecap="round" stroke-linejoin="round" stroke-dasharray="3.5 6"/>
</g>
<defs>
<clipPath id="clip0_261_1740">
<rect width="137" height="175" fill="white" transform="translate(0.5)"/>
</clipPath>
</defs>
</svg>
