<svg
width="14"
height="15"
viewBox="0 0 14 15"
fill="none"
xmlns="http://www.w3.org/2000/svg"
>
<rect
	x="4.375"
	y="6.88086"
	width="1.75"
	height="5.25"
	fill="#F43F5E"
/>
<rect
	x="7.875"
	y="6.88086"
	width="1.75"
	height="5.25"
	fill="#F43F5E"
/>
<path
	fill-rule="evenodd"
	clip-rule="evenodd"
	d="M10.5 1.63086C10.5 1.10586 10.15 0.755859 9.625 0.755859H4.375C3.85 0.755859 3.5 1.10586 3.5 1.63086V3.38086H0V5.13086H0.875V13.8809C0.875 14.4059 1.225 14.7559 1.75 14.7559H12.25C12.775 14.7559 13.125 14.4059 13.125 13.8809V5.13086H14V3.38086H10.5V1.63086ZM5.25 2.50586H8.75V3.38086H5.25V2.50586ZM11.375 13.0059V5.13086H2.625V13.0059H11.375Z"
	fill="#F43F5E"
/>
</svg>