<svg width="39" height="39" viewBox="0 0 39 39" fill="none" xmlns="http://www.w3.org/2000/svg">
<path d="M38.1139 19.8426C38.1139 18.5338 37.9868 17.1829 37.775 15.9164H19.4328V23.3888H29.9382C29.5146 25.7951 28.1167 27.906 26.0411 29.2569L32.3105 34.1118C35.9958 30.6923 38.1139 25.7107 38.1139 19.8426Z" fill="#4280EF"/>
<path d="M19.4329 38.7557C24.6856 38.7557 29.0911 37.0248 32.3106 34.0696L26.0412 29.2569C24.3044 30.439 22.0593 31.1144 19.4329 31.1144C14.3496 31.1144 10.0711 27.6949 8.5038 23.1355L2.06496 28.0748C5.3691 34.6184 12.0621 38.7557 19.4329 38.7557Z" fill="#34A353"/>
<path d="M8.50393 23.0932C7.69907 20.6869 7.69907 18.0694 8.50393 15.6631L2.06509 10.6815C-0.688363 16.1697 -0.688363 22.6289 2.06509 28.0748L8.50393 23.0932Z" fill="#F6B704"/>
<path d="M19.4329 7.68419C22.1863 7.64197 24.8974 8.69739 26.8884 10.5971L32.4376 5.02453C28.9217 1.73162 24.262 -0.04148 19.4329 0.000736804C12.0621 0.000736804 5.3691 4.13798 2.06496 10.6816L8.5038 15.6632C10.0711 11.0615 14.3496 7.68419 19.4329 7.68419Z" fill="#E54335"/>
</svg>
