<svg width="44" height="44" fill="none" xmlns="http://www.w3.org/2000/svg"><path d="M39.875 0C41.938 0 43.966 2.063 44 4.125l-.034 16.988C44 27 42.086 33.024 37.585 37.555c-6.95 7-17.683 8.46-26.225 3.566C2.817 36.226-1.427 26.185.988 16.588 3.403 6.99 11.884.201 21.708 0h18.167z" fill="url(#a)"/><path d="M11.964 14.862a2.663 2.663 0 0 0-2.418 1.354h-.034v-4.4H7.161v11.775h2.351v-4.84c0-1.151.605-1.997 1.545-1.997.74 0 1.478.405 1.478 1.624v5.18h2.385v-5.755c0-1.625-.907-2.941-2.956-2.941zm6.516.237h-2.384v8.526h2.385v-8.526h-.001zm-1.209-.44a1.416 1.416 0 0 0 1.41-1.422 1.416 1.416 0 0 0-1.41-1.422 1.417 1.417 0 0 0-1.41 1.422 1.447 1.447 0 0 0 1.41 1.422zm5.707 9.034c.382 0 .765-.035 1.142-.102v-1.862a1.904 1.904 0 0 1-.47.035c-.606 0-.773-.17-.773-.577v-4.264h2.418v4.57c0 1.827.94 2.233 2.485 2.233.383 0 .765-.034 1.142-.101v-1.862c-.154.03-.312.042-.47.034-.605 0-.772-.17-.772-.575v-4.3h1.242v-1.827h-1.279v-3.284h-2.351v3.25h-2.418v-3.25h-2.386v3.25h-1.075v1.828h1.075v4.569c0 1.861.944 2.234 2.489 2.234zm10.207-5.078c-3.326.203-3.594 1.692-3.594 2.606 0 1.93 1.646 2.606 2.956 2.606a3.459 3.459 0 0 0 2.888-1.353h.034v1.117h2.284a4.616 4.616 0 0 1-.1-1.05V17.6c0-1.963-1.747-2.742-3.83-2.742-2.956 0-3.896 1.66-3.963 2.98h2.283c.035-.78.64-1.253 1.613-1.253 1.041 0 1.645.507 1.645 1.522v.407l-2.216.102zm2.183 2.065c0 1.015-1.209 1.456-1.948 1.456-.806 0-1.478-.238-1.478-.982 0-.61.37-.948 1.444-1.05l1.982-.168v.744zm-15.84 10.16a1.381 1.381 0 0 0-1.377 1.388 1.384 1.384 0 0 0 1.377 1.388 1.382 1.382 0 0 0 1.377-1.388 1.374 1.374 0 0 0-.399-.986 1.356 1.356 0 0 0-.978-.401zm4.293-3.401c0-.484.607-.741 1.182-.741.863 0 1.343.42 1.374 1.093l2.267-.034c-.128-1.77-1.502-2.67-3.543-2.67-2.352 0-3.322 1.354-3.322 2.605 0 3.349 4.819 2.123 4.819 3.477 0 .677-.765.836-1.343.836-.672 0-1.374-.339-1.404-1.093h-2.264c.192 2.37 2.426 2.734 3.578 2.734 3.322 0 3.67-2.091 3.67-2.707 0-3.307-5.014-2.05-5.014-3.5zm9.736-2.349c-2.425 0-4.118 1.672-4.118 4.279 0 2.605 1.68 4.247 4.119 4.247 1.883 0 3.358-.87 3.925-2.508l-2.216-.162a1.721 1.721 0 0 1-1.595.964c-1.213 0-1.788-.934-1.885-1.898h5.875v-.643c.016-2.63-1.676-4.279-4.104-4.279h-.001zm-1.787 3.443c.128-.901.703-1.737 1.884-1.737 1.085 0 1.66.934 1.757 1.737h-3.64z" fill="#fff"/><defs><linearGradient id="a" x1="22.155" y1="44" x2="22.155" y2="0" gradientUnits="userSpaceOnUse"><stop stop-color="#3365EB"/><stop offset="1" stop-color="#51D3FA"/></linearGradient></defs></svg>