<svg width="16" height="14" viewBox="0 0 16 14" fill="none" xmlns="http://www.w3.org/2000/svg">
<path d="M2.47632 1.94782C2.16679 2.25735 1.92126 2.62481 1.75374 3.02923C1.58622 3.43365 1.5 3.86711 1.5 4.30485C1.5 4.74259 1.58622 5.17604 1.75374 5.58046C1.92126 5.98488 2.16679 6.35235 2.47632 6.66188L8.16667 12.3522L13.857 6.66188C14.4821 6.03675 14.8333 5.1889 14.8333 4.30485C14.8333 3.42079 14.4821 2.57294 13.857 1.94782C13.2319 1.3227 12.384 0.971505 11.5 0.971505C10.6159 0.971505 9.76809 1.3227 9.14296 1.94782L8.16667 2.92411L7.19038 1.94782C6.88085 1.63829 6.51339 1.39275 6.10897 1.22523C5.70455 1.05772 5.27109 0.971497 4.83335 0.971497C4.39561 0.971497 3.96215 1.05772 3.55773 1.22523C3.15331 1.39275 2.78585 1.63829 2.47632 1.94782V1.94782Z" stroke="#94A3B8" stroke-width="1.66667" stroke-linecap="round" stroke-linejoin="round"/>
</svg>
