<svg width="450" height="59" viewBox="0 0 450 59" fill="none" xmlns="http://www.w3.org/2000/svg">
<path d="M89.7 7C89.21 7 89 7.21 89 7.7V11.69C89 12.18 89.21 12.39 89.7 12.39H103V51.17C103 51.66 103.21 51.87 103.7 51.87H108.18C108.67 51.87 108.88 51.66 108.88 51.17V12.39H121.97C122.46 12.39 122.67 12.18 122.67 11.69V7.7C122.67 7.21 122.46 7 121.97 7H89.7Z" fill="white"/>
<path d="M139.414 20.51C135.144 20.51 131.994 22.05 129.964 25.2V21.7C129.964 21.21 129.754 21 129.264 21H124.784C124.294 21 124.084 21.21 124.084 21.7V51.17C124.084 51.66 124.294 51.87 124.784 51.87H129.194C129.684 51.87 129.894 51.66 129.894 51.17L129.964 31.71C131.574 27.86 135.004 25.76 139.414 25.76C140.324 25.76 141.094 25.83 141.794 25.97C142.284 26.11 142.564 25.9 142.564 25.41V21.49C142.564 21 142.354 20.79 141.934 20.72C141.164 20.58 140.324 20.51 139.414 20.51Z" fill="white"/>
<path d="M170.676 43.26C168.646 46.2 165.776 47.6 162.066 47.53C156.956 47.53 154.366 44.59 154.366 38.78V21.7C154.366 21.21 154.156 21 153.666 21H149.256C148.766 21 148.556 21.21 148.556 21.7V39.76C148.556 47.88 152.896 52.71 160.456 52.71C164.586 52.71 167.946 51.45 170.676 48.86V51.17C170.676 51.66 170.886 51.87 171.376 51.87H175.786C176.276 51.87 176.486 51.66 176.486 51.17V21.7C176.486 21.21 176.276 21 175.786 21H171.376C170.886 21 170.676 21.21 170.676 21.7V43.26Z" fill="white"/>
<path d="M196.037 52.71C203.877 52.71 208.847 49.07 208.847 43.19C208.847 38.57 206.187 35.63 200.867 34.44L194.777 33.04C192.607 32.62 190.647 31.99 190.367 29.12C190.367 26.53 192.537 24.78 196.527 24.78C199.747 24.78 202.547 25.62 204.927 27.3C205.417 27.65 205.697 27.58 205.907 27.09L207.237 24.01C207.447 23.59 207.377 23.31 207.027 23.1C204.017 21.07 200.377 20.09 196.247 20.09C189.247 20.09 184.487 23.87 184.487 29.4C184.487 33.81 187.147 36.61 192.467 37.87L198.137 39.2C198.207 39.2 198.347 39.2 198.487 39.27C200.377 39.69 202.617 40.32 202.827 43.61C202.827 46.55 200.587 48.02 196.037 48.02C192.327 48.02 189.177 47.04 186.447 45.15C185.957 44.8 185.677 44.87 185.467 45.36L184.137 48.37C183.927 48.79 183.997 49.14 184.347 49.35C187.217 51.59 191.137 52.71 196.037 52.71Z" fill="white"/>
<path d="M238.847 21.7C238.847 21.21 238.637 21 238.147 21H227.577V7.7C227.577 7.21 227.367 7 226.877 7H222.467C221.977 7 221.767 7.21 221.767 7.7V21H213.227C212.737 21 212.527 21.21 212.527 21.7V25.13C212.527 25.62 212.737 25.83 213.227 25.83H221.767V41.79C221.767 49 225.687 52.64 232.617 52.64C234.367 52.64 236.187 52.36 237.937 51.87C238.287 51.8 238.497 51.52 238.497 51.1V47.6C238.497 47.11 238.217 46.9 237.727 47.04C236.467 47.39 235.137 47.6 233.807 47.6C229.677 47.6 227.577 45.5 227.577 41.3V25.83H238.147C238.637 25.83 238.847 25.62 238.847 25.13V21.7Z" fill="white"/>
<path d="M262.153 20.09C257.603 20.09 254.033 21.56 251.513 24.43V7.7C251.513 7.21 251.303 7 250.813 7H246.403C245.913 7 245.703 7.21 245.703 7.7V51.17C245.703 51.66 245.913 51.87 246.403 51.87H250.813C251.303 51.87 251.513 51.66 251.513 51.17V48.37C254.033 51.24 257.603 52.71 262.223 52.71C266.773 52.71 270.483 51.24 273.353 48.23C276.223 45.22 277.623 41.3 277.623 36.47C277.623 31.5 276.223 27.58 273.353 24.57C270.483 21.56 266.773 20.09 262.153 20.09ZM261.033 47.46C256.833 47.46 253.123 45.43 251.513 42.35V30.45C253.123 27.37 256.833 25.34 261.033 25.34C267.473 25.34 271.673 29.75 271.673 36.4C271.673 43.05 267.473 47.46 261.033 47.46Z" fill="white"/>
<path d="M306.848 43.26C304.818 46.2 301.948 47.6 298.238 47.53C293.128 47.53 290.538 44.59 290.538 38.78V21.7C290.538 21.21 290.328 21 289.838 21H285.428C284.938 21 284.728 21.21 284.728 21.7V39.76C284.728 47.88 289.068 52.71 296.628 52.71C300.758 52.71 304.118 51.45 306.848 48.86V51.17C306.848 51.66 307.058 51.87 307.548 51.87H311.958C312.448 51.87 312.658 51.66 312.658 51.17V21.7C312.658 21.21 312.448 21 311.958 21H307.548C307.058 21 306.848 21.21 306.848 21.7V43.26Z" fill="white"/>
<path d="M319.756 36.47C319.756 41.3 321.226 45.22 324.166 48.23C327.176 51.24 331.026 52.71 335.856 52.71C342.226 52.71 347.336 49.77 349.506 44.94C349.716 44.52 349.576 44.24 349.086 44.03L345.096 42.56C344.676 42.42 344.396 42.56 344.186 42.98C342.716 45.99 339.916 47.53 335.646 47.53C329.696 47.53 325.636 43.12 325.636 36.47C325.636 29.75 329.556 25.34 335.646 25.34C339.636 25.34 342.856 27.09 344.186 29.89C344.396 30.31 344.676 30.45 345.096 30.31L349.086 28.84C349.576 28.63 349.716 28.35 349.506 27.93C347.336 23.17 342.086 20.16 335.856 20.16C331.026 20.16 327.106 21.63 324.166 24.64C321.226 27.65 319.756 31.57 319.756 36.47Z" fill="white"/>
<path d="M380.084 21C379.734 21 379.454 21.14 379.244 21.35L363.144 36.54V7.7C363.144 7.21 362.934 7 362.444 7H358.034C357.544 7 357.334 7.21 357.334 7.7V51.17C357.334 51.66 357.544 51.87 358.034 51.87H362.444C362.934 51.87 363.144 51.66 363.144 51.17V43.61L369.654 37.38L379.804 51.45C380.014 51.73 380.294 51.87 380.644 51.87H385.754C386.314 51.87 386.524 51.38 386.174 51.03L373.714 33.46L385.894 21.84C386.384 21.35 386.174 21 385.544 21H380.084Z" fill="white"/>
<path d="M389.619 36.33C389.619 41.3 391.019 45.29 393.889 48.3C396.759 51.24 400.609 52.71 405.579 52.71C411.249 52.71 416.219 50.33 418.809 46.41C419.019 46.06 419.019 45.78 418.669 45.43L416.009 43.26C415.659 42.91 415.309 42.98 415.029 43.4C413.279 46.13 409.709 47.81 405.789 47.81C399.559 47.81 395.359 43.89 395.429 37.52H418.949C419.369 37.52 419.649 37.31 419.719 36.89C419.789 35.84 419.859 35 419.859 34.3C419.859 30.1 418.529 26.67 415.799 24.08C413.069 21.42 409.569 20.09 405.229 20.09C400.609 20.09 396.829 21.56 393.959 24.57C391.089 27.58 389.619 31.5 389.619 36.33ZM395.499 33.32C395.989 28.28 399.699 24.99 405.089 24.99C410.479 24.99 414.049 28.35 414.119 33.32H395.499Z" fill="white"/>
<path d="M449.667 21.7C449.667 21.21 449.457 21 448.967 21H438.397V7.7C438.397 7.21 438.187 7 437.697 7H433.287C432.797 7 432.587 7.21 432.587 7.7V21H424.047C423.557 21 423.347 21.21 423.347 21.7V25.13C423.347 25.62 423.557 25.83 424.047 25.83H432.587V41.79C432.587 49 436.507 52.64 443.437 52.64C445.187 52.64 447.007 52.36 448.757 51.87C449.107 51.8 449.317 51.52 449.317 51.1V47.6C449.317 47.11 449.037 46.9 448.547 47.04C447.287 47.39 445.957 47.6 444.627 47.6C440.497 47.6 438.397 45.5 438.397 41.3V25.83H448.967C449.457 25.83 449.667 25.62 449.667 25.13V21.7Z" fill="white"/>
<path d="M89.7 7C89.21 7 89 7.21 89 7.7V11.69C89 12.18 89.21 12.39 89.7 12.39H103V51.17C103 51.66 103.21 51.87 103.7 51.87H108.18C108.67 51.87 108.88 51.66 108.88 51.17V12.39H121.97C122.46 12.39 122.67 12.18 122.67 11.69V7.7C122.67 7.21 122.46 7 121.97 7H89.7Z" stroke="white" strokeWidth="0.5"/>
<path d="M139.414 20.51C135.144 20.51 131.994 22.05 129.964 25.2V21.7C129.964 21.21 129.754 21 129.264 21H124.784C124.294 21 124.084 21.21 124.084 21.7V51.17C124.084 51.66 124.294 51.87 124.784 51.87H129.194C129.684 51.87 129.894 51.66 129.894 51.17L129.964 31.71C131.574 27.86 135.004 25.76 139.414 25.76C140.324 25.76 141.094 25.83 141.794 25.97C142.284 26.11 142.564 25.9 142.564 25.41V21.49C142.564 21 142.354 20.79 141.934 20.72C141.164 20.58 140.324 20.51 139.414 20.51Z" stroke="white" strokeWidth="0.5"/>
<path d="M170.676 43.26C168.646 46.2 165.776 47.6 162.066 47.53C156.956 47.53 154.366 44.59 154.366 38.78V21.7C154.366 21.21 154.156 21 153.666 21H149.256C148.766 21 148.556 21.21 148.556 21.7V39.76C148.556 47.88 152.896 52.71 160.456 52.71C164.586 52.71 167.946 51.45 170.676 48.86V51.17C170.676 51.66 170.886 51.87 171.376 51.87H175.786C176.276 51.87 176.486 51.66 176.486 51.17V21.7C176.486 21.21 176.276 21 175.786 21H171.376C170.886 21 170.676 21.21 170.676 21.7V43.26Z" stroke="white" strokeWidth="0.5"/>
<path d="M196.037 52.71C203.877 52.71 208.847 49.07 208.847 43.19C208.847 38.57 206.187 35.63 200.867 34.44L194.777 33.04C192.607 32.62 190.647 31.99 190.367 29.12C190.367 26.53 192.537 24.78 196.527 24.78C199.747 24.78 202.547 25.62 204.927 27.3C205.417 27.65 205.697 27.58 205.907 27.09L207.237 24.01C207.447 23.59 207.377 23.31 207.027 23.1C204.017 21.07 200.377 20.09 196.247 20.09C189.247 20.09 184.487 23.87 184.487 29.4C184.487 33.81 187.147 36.61 192.467 37.87L198.137 39.2C198.207 39.2 198.347 39.2 198.487 39.27C200.377 39.69 202.617 40.32 202.827 43.61C202.827 46.55 200.587 48.02 196.037 48.02C192.327 48.02 189.177 47.04 186.447 45.15C185.957 44.8 185.677 44.87 185.467 45.36L184.137 48.37C183.927 48.79 183.997 49.14 184.347 49.35C187.217 51.59 191.137 52.71 196.037 52.71Z" stroke="white" strokeWidth="0.5"/>
<path d="M238.847 21.7C238.847 21.21 238.637 21 238.147 21H227.577V7.7C227.577 7.21 227.367 7 226.877 7H222.467C221.977 7 221.767 7.21 221.767 7.7V21H213.227C212.737 21 212.527 21.21 212.527 21.7V25.13C212.527 25.62 212.737 25.83 213.227 25.83H221.767V41.79C221.767 49 225.687 52.64 232.617 52.64C234.367 52.64 236.187 52.36 237.937 51.87C238.287 51.8 238.497 51.52 238.497 51.1V47.6C238.497 47.11 238.217 46.9 237.727 47.04C236.467 47.39 235.137 47.6 233.807 47.6C229.677 47.6 227.577 45.5 227.577 41.3V25.83H238.147C238.637 25.83 238.847 25.62 238.847 25.13V21.7Z" stroke="white" strokeWidth="0.5"/>
<path d="M262.153 20.09C257.603 20.09 254.033 21.56 251.513 24.43V7.7C251.513 7.21 251.303 7 250.813 7H246.403C245.913 7 245.703 7.21 245.703 7.7V51.17C245.703 51.66 245.913 51.87 246.403 51.87H250.813C251.303 51.87 251.513 51.66 251.513 51.17V48.37C254.033 51.24 257.603 52.71 262.223 52.71C266.773 52.71 270.483 51.24 273.353 48.23C276.223 45.22 277.623 41.3 277.623 36.47C277.623 31.5 276.223 27.58 273.353 24.57C270.483 21.56 266.773 20.09 262.153 20.09ZM261.033 47.46C256.833 47.46 253.123 45.43 251.513 42.35V30.45C253.123 27.37 256.833 25.34 261.033 25.34C267.473 25.34 271.673 29.75 271.673 36.4C271.673 43.05 267.473 47.46 261.033 47.46Z" stroke="white" strokeWidth="0.5"/>
<path d="M306.848 43.26C304.818 46.2 301.948 47.6 298.238 47.53C293.128 47.53 290.538 44.59 290.538 38.78V21.7C290.538 21.21 290.328 21 289.838 21H285.428C284.938 21 284.728 21.21 284.728 21.7V39.76C284.728 47.88 289.068 52.71 296.628 52.71C300.758 52.71 304.118 51.45 306.848 48.86V51.17C306.848 51.66 307.058 51.87 307.548 51.87H311.958C312.448 51.87 312.658 51.66 312.658 51.17V21.7C312.658 21.21 312.448 21 311.958 21H307.548C307.058 21 306.848 21.21 306.848 21.7V43.26Z" stroke="white" strokeWidth="0.5"/>
<path d="M319.756 36.47C319.756 41.3 321.226 45.22 324.166 48.23C327.176 51.24 331.026 52.71 335.856 52.71C342.226 52.71 347.336 49.77 349.506 44.94C349.716 44.52 349.576 44.24 349.086 44.03L345.096 42.56C344.676 42.42 344.396 42.56 344.186 42.98C342.716 45.99 339.916 47.53 335.646 47.53C329.696 47.53 325.636 43.12 325.636 36.47C325.636 29.75 329.556 25.34 335.646 25.34C339.636 25.34 342.856 27.09 344.186 29.89C344.396 30.31 344.676 30.45 345.096 30.31L349.086 28.84C349.576 28.63 349.716 28.35 349.506 27.93C347.336 23.17 342.086 20.16 335.856 20.16C331.026 20.16 327.106 21.63 324.166 24.64C321.226 27.65 319.756 31.57 319.756 36.47Z" stroke="white" strokeWidth="0.5"/>
<path d="M380.084 21C379.734 21 379.454 21.14 379.244 21.35L363.144 36.54V7.7C363.144 7.21 362.934 7 362.444 7H358.034C357.544 7 357.334 7.21 357.334 7.7V51.17C357.334 51.66 357.544 51.87 358.034 51.87H362.444C362.934 51.87 363.144 51.66 363.144 51.17V43.61L369.654 37.38L379.804 51.45C380.014 51.73 380.294 51.87 380.644 51.87H385.754C386.314 51.87 386.524 51.38 386.174 51.03L373.714 33.46L385.894 21.84C386.384 21.35 386.174 21 385.544 21H380.084Z" stroke="white" strokeWidth="0.5"/>
<path d="M389.619 36.33C389.619 41.3 391.019 45.29 393.889 48.3C396.759 51.24 400.609 52.71 405.579 52.71C411.249 52.71 416.219 50.33 418.809 46.41C419.019 46.06 419.019 45.78 418.669 45.43L416.009 43.26C415.659 42.91 415.309 42.98 415.029 43.4C413.279 46.13 409.709 47.81 405.789 47.81C399.559 47.81 395.359 43.89 395.429 37.52H418.949C419.369 37.52 419.649 37.31 419.719 36.89C419.789 35.84 419.859 35 419.859 34.3C419.859 30.1 418.529 26.67 415.799 24.08C413.069 21.42 409.569 20.09 405.229 20.09C400.609 20.09 396.829 21.56 393.959 24.57C391.089 27.58 389.619 31.5 389.619 36.33ZM395.499 33.32C395.989 28.28 399.699 24.99 405.089 24.99C410.479 24.99 414.049 28.35 414.119 33.32H395.499Z" stroke="white" strokeWidth="0.5"/>
<path d="M449.667 21.7C449.667 21.21 449.457 21 448.967 21H438.397V7.7C438.397 7.21 438.187 7 437.697 7H433.287C432.797 7 432.587 7.21 432.587 7.7V21H424.047C423.557 21 423.347 21.21 423.347 21.7V25.13C423.347 25.62 423.557 25.83 424.047 25.83H432.587V41.79C432.587 49 436.507 52.64 443.437 52.64C445.187 52.64 447.007 52.36 448.757 51.87C449.107 51.8 449.317 51.52 449.317 51.1V47.6C449.317 47.11 449.037 46.9 448.547 47.04C447.287 47.39 445.957 47.6 444.627 47.6C440.497 47.6 438.397 45.5 438.397 41.3V25.83H448.967C449.457 25.83 449.667 25.62 449.667 25.13V21.7Z" stroke="white" strokeWidth="0.5"/>
<path d="M0.373227 2.31794C0.177468 1.10217 1.11637 0 2.34779 0H63.6522C64.8836 0 65.8225 1.10217 65.6268 2.31794L56.7708 57.3179C56.6148 58.2873 55.7781 59 54.7963 59H11.2037C10.2219 59 9.38524 58.2873 9.22916 57.3179L0.373227 2.31794Z" fill="url(#paint0_linear_234_2)"/>
<path d="M31.0904 15.0698C31.2887 14.4316 31.8591 14 32.501 14C33.1428 14 33.7108 14.4316 33.909 15.0698L36.3955 23.0674C36.469 23.3015 36.6124 23.5067 36.8032 23.6524C36.9957 23.7982 37.2278 23.8771 37.4637 23.8771L45.5193 23.8732C46.1611 23.8732 46.7291 24.3049 46.9274 24.9434C47.1256 25.5798 46.9087 26.2775 46.3895 26.6716L39.8726 31.6121C39.6801 31.7579 39.5367 31.963 39.4632 32.1976C39.3893 32.4339 39.3913 32.6883 39.4632 32.9229L41.9551 40.9179C42.1534 41.5565 41.9361 42.2541 41.417 42.6482C40.8977 43.0423 40.1935 43.0423 39.6744 42.6482L33.1615 37.7038C32.969 37.5577 32.7389 37.4788 32.501 37.4788C32.263 37.4788 32.0325 37.5577 31.8401 37.7038L25.3252 42.6482C24.8059 43.0423 24.1038 43.0423 23.5846 42.6482C23.0638 42.2541 22.8465 41.5565 23.0468 40.9179L25.5367 32.9229C25.6102 32.6883 25.6102 32.4339 25.5367 32.1976C25.4648 31.9631 25.3214 31.7579 25.1289 31.6121L18.6123 26.6716C18.0931 26.2775 17.8742 25.5798 18.0721 24.9434C18.2724 24.3049 18.8408 23.8732 19.4826 23.8732L27.5358 23.8771C27.7737 23.8771 28.0058 23.7982 28.1966 23.6524C28.3892 23.5067 28.5325 23.3015 28.6043 23.0674L31.0904 15.0698V15.0698Z" fill="white"/>
<defs>
<linearGradient id="paint0_linear_234_2" x1="33" y1="0" x2="33" y2="59" gradientUnits="userSpaceOnUse">
<stop stop-color="#2683FF"/>
<stop offset="1" stop-color="#0052CC"/>
</linearGradient>
</defs>
</svg>
