<svg width="66" height="59" viewBox="0 0 66 59" fill="none" xmlns="http://www.w3.org/2000/svg">
<path d="M0.373555 2.31794C0.177796 1.10217 1.1167 0 2.34812 0H63.6525C64.8839 0 65.8228 1.10217 65.6271 2.31794L56.7711 57.3179C56.6151 58.2873 55.7784 59 54.7966 59H11.204C10.2222 59 9.38557 58.2873 9.22949 57.3179L0.373555 2.31794Z" fill="url(#paint0_linear_20_27)"/>
<path d="M31.0904 15.0698C31.2887 14.4316 31.8591 14 32.501 14C33.1428 14 33.7108 14.4316 33.909 15.0698L36.3955 23.0674C36.469 23.3015 36.6124 23.5067 36.8032 23.6524C36.9957 23.7982 37.2278 23.8771 37.4637 23.8771L45.5193 23.8732C46.1611 23.8732 46.7291 24.3049 46.9274 24.9434C47.1256 25.5798 46.9087 26.2775 46.3895 26.6716L39.8726 31.6121C39.6801 31.7579 39.5367 31.963 39.4632 32.1976C39.3893 32.4339 39.3913 32.6883 39.4632 32.9229L41.9551 40.9179C42.1534 41.5565 41.9361 42.2541 41.417 42.6482C40.8977 43.0423 40.1935 43.0423 39.6744 42.6482L33.1615 37.7038C32.969 37.5577 32.7389 37.4788 32.501 37.4788C32.263 37.4788 32.0325 37.5577 31.8401 37.7038L25.3252 42.6482C24.8059 43.0423 24.1038 43.0423 23.5846 42.6482C23.0638 42.2541 22.8465 41.5565 23.0468 40.9179L25.5367 32.9229C25.6102 32.6883 25.6102 32.4339 25.5367 32.1976C25.4648 31.9631 25.3214 31.7579 25.1289 31.6121L18.6123 26.6716C18.0931 26.2775 17.8742 25.5798 18.0721 24.9434C18.2724 24.3049 18.8408 23.8732 19.4826 23.8732L27.5358 23.8771C27.7737 23.8771 28.0058 23.7982 28.1966 23.6524C28.3892 23.5067 28.5325 23.3015 28.6043 23.0674L31.0904 15.0698Z" fill="white"/>
<defs>
<linearGradient id="paint0_linear_20_27" x1="33.0003" y1="0" x2="33.0003" y2="59" gradientUnits="userSpaceOnUse">
<stop stop-color="#2683FF"/>
<stop offset="1" stop-color="#0052CC"/>
</linearGradient>
</defs>
</svg>
