<svg width="38" height="39" viewBox="0 0 38 39" fill="none" xmlns="http://www.w3.org/2000/svg">
<path fill-rule="evenodd" clip-rule="evenodd" d="M34.871 8.44227C29.6556 0.539098 18.0491 -2.1169 9.23416 2.45012C-8.98347 11.7784 1.66796 36.0063 24.5135 38.4679C24.5135 38.4679 26.9376 38.7269 27.966 38.7269C28.8475 38.7269 29.2147 38.0792 28.3333 37.82C25.248 36.9132 23.4116 35.4231 22.4567 33.0912C35.2385 30.3703 41.262 18.2565 34.871 8.47466" fill="black"/>
<path fill-rule="evenodd" clip-rule="evenodd" d="M34.5881 15.3224C33.7799 8.45568 27.4625 3.07893 19.6761 2.69025V15.3224H34.5881Z" fill="#51A7D8"/>
<path fill-rule="evenodd" clip-rule="evenodd" d="M19.6761 30.9339C27.9767 30.4804 34.5147 24.456 34.6616 17.0062H19.6761V30.9339Z" fill="#C3DA4A"/>
<path fill-rule="evenodd" clip-rule="evenodd" d="M2.79002 17.0062C2.9149 24.456 9.51146 30.4804 17.7755 30.9339V17.0062H2.79002Z" fill="#ED2281"/>
<path fill-rule="evenodd" clip-rule="evenodd" d="M17.767 2.68918C9.98044 3.09146 3.66304 8.43517 2.85498 15.3213H17.767V2.68918Z" fill="#F9C63C"/>
</svg>
