<svg width="16" height="15" viewBox="0 0 16 15" fill="none" xmlns="http://www.w3.org/2000/svg">
<path fill-rule="evenodd" clip-rule="evenodd" d="M5.70703 1.09787C5.8945 1.2854 5.99982 1.53971 5.99982 1.80487C5.99982 2.07003 5.8945 2.32434 5.70703 2.51187L3.41403 4.80487H9.00003C10.8565 4.80487 12.637 5.54237 13.9498 6.85512C15.2625 8.16788 16 9.94835 16 11.8049V13.8049C16 14.0701 15.8947 14.3244 15.7071 14.512C15.5196 14.6995 15.2652 14.8049 15 14.8049C14.7348 14.8049 14.4805 14.6995 14.2929 14.512C14.1054 14.3244 14 14.0701 14 13.8049V11.8049C14 10.4788 13.4732 9.20702 12.5356 8.26934C11.5979 7.33165 10.3261 6.80487 9.00003 6.80487H3.41403L5.70703 9.09787C5.80254 9.19012 5.87872 9.30046 5.93113 9.42247C5.98354 9.54447 6.01113 9.67569 6.01228 9.80847C6.01344 9.94125 5.98813 10.0729 5.93785 10.1958C5.88757 10.3187 5.81332 10.4304 5.71943 10.5243C5.62553 10.6182 5.51388 10.6924 5.39098 10.7427C5.26809 10.793 5.13641 10.8183 5.00363 10.8171C4.87085 10.816 4.73963 10.7884 4.61763 10.736C4.49562 10.6836 4.38528 10.6074 4.29303 10.5119L0.293031 6.51187C0.105559 6.32434 0.000244141 6.07003 0.000244141 5.80487C0.000244141 5.53971 0.105559 5.2854 0.293031 5.09787L4.29303 1.09787C4.48056 0.9104 4.73487 0.805084 5.00003 0.805084C5.26519 0.805084 5.5195 0.9104 5.70703 1.09787Z" fill="#94A3B8"/>
</svg>
