<svg width="39" height="40" viewBox="0 0 39 40" fill="none" xmlns="http://www.w3.org/2000/svg">
<path d="M19.4266 39.6092C30.1557 39.6092 38.8532 30.9116 38.8532 20.1826C38.8532 9.45355 30.1557 0.755951 19.4266 0.755951C8.6976 0.755951 0 9.45355 0 20.1826C0 30.9116 8.6976 39.6092 19.4266 39.6092Z" fill="#34E0A1"/>
<path d="M31.4256 16.3929L33.7699 13.8425H28.5713C25.9688 12.0647 22.8258 11.0294 19.4267 11.0294C16.0319 11.0294 12.8976 12.067 10.2994 13.8425H5.08789L7.43211 16.3929C5.99522 17.7039 5.09443 19.5923 5.09443 21.6891C5.09443 25.6461 8.30257 28.8542 12.2595 28.8542C14.1393 28.8542 15.8518 28.1292 17.1303 26.9441L19.4268 29.4446L21.7232 26.9462C23.0017 28.1314 24.7121 28.8542 26.5918 28.8542C30.5488 28.8542 33.7612 25.6461 33.7612 21.6891C33.7633 19.5902 32.8626 17.7018 31.4256 16.3929ZM12.2617 26.5382C9.58313 26.5382 7.41262 24.3676 7.41262 21.6891C7.41262 19.0106 9.58319 16.84 12.2617 16.84C14.9401 16.84 17.1107 19.0106 17.1107 21.6891C17.1107 24.3676 14.9401 26.5382 12.2617 26.5382ZM19.4289 21.548C19.4289 18.3573 17.1086 15.618 14.0459 14.4481C15.702 13.7556 17.5188 13.3714 19.4267 13.3714C21.3346 13.3714 23.1535 13.7556 24.8097 14.4481C21.7492 15.6202 19.4289 18.3573 19.4289 21.548ZM26.594 26.5382C23.9155 26.5382 21.7449 24.3676 21.7449 21.6891C21.7449 19.0106 23.9155 16.84 26.594 16.84C29.2725 16.84 31.443 19.0106 31.443 21.6891C31.443 24.3676 29.2724 26.5382 26.594 26.5382ZM26.594 19.1452C25.1896 19.1452 24.0522 20.2826 24.0522 21.6869C24.0522 23.0913 25.1896 24.2287 26.594 24.2287C27.9983 24.2287 29.1357 23.0913 29.1357 21.6869C29.1357 20.2847 27.9983 19.1452 26.594 19.1452ZM14.8034 21.6891C14.8034 23.0935 13.666 24.2309 12.2617 24.2309C10.8573 24.2309 9.71992 23.0935 9.71992 21.6891C9.71992 20.2847 10.8573 19.1473 12.2617 19.1473C13.666 19.1452 14.8034 20.2847 14.8034 21.6891Z" fill="black"/>
</svg>
