<svg width="52" height="52" viewBox="0 0 52 52" fill="none" xmlns="http://www.w3.org/2000/svg">
<path fill-rule="evenodd" clip-rule="evenodd" d="M25.5879 0.0150146C28.6981 0.0150146 33.4216 6.68349 33.4216 6.68349C33.4216 6.68349 41.4849 5.30004 43.682 7.48606C45.8818 9.69974 44.501 17.7519 44.501 17.7519C44.501 17.7519 51.178 22.4839 51.178 25.583C51.178 28.7098 44.501 33.4138 44.501 33.4138C44.501 33.4138 45.8818 41.4936 43.682 43.6796C41.4849 45.8933 33.4216 44.5099 33.4216 44.5099C33.4216 44.5099 28.6981 51.1787 25.5879 51.1787C22.4805 51.1787 17.7543 44.5099 17.7543 44.5099C17.7543 44.5099 9.69367 45.8933 7.49382 43.6796C5.29674 41.4936 6.67479 33.4138 6.67479 33.4138C6.67479 33.4138 0.000488281 28.7098 0.000488281 25.583C0.000488281 22.4839 6.67479 17.7519 6.67479 17.7519C6.67479 17.7519 5.29674 9.69974 7.49382 7.48606C9.69367 5.30004 17.7543 6.68349 17.7543 6.68349C17.7543 6.68349 22.4805 0.0150146 25.5879 0.0150146Z" fill="#2563EB"/>
<path fill-rule="evenodd" clip-rule="evenodd" d="M25.2592 25.8912L33.2086 17.9125C33.8005 17.3199 34.7606 17.3199 35.3526 17.9125L37.4965 20.0662C38.0885 20.6588 38.0885 21.6272 37.4965 22.2198L26.895 32.8437C26.8647 32.8871 26.8315 32.9305 26.7968 32.9595L24.6513 35.1131C24.3554 35.4022 23.9641 35.5609 23.5742 35.5609C23.1844 35.5609 22.7947 35.4022 22.4972 35.1131L20.3533 32.9595C20.3186 32.9305 20.2854 32.8871 20.2551 32.8437L14.7067 27.2788C14.1147 26.6861 14.1147 25.7322 14.7067 25.1396L16.8506 22.9859C17.4426 22.3933 18.4042 22.3933 18.9961 22.9859L23.1974 27.1923H23.196L23.2047 27.2068L23.5742 27.5826L23.5772 27.5681L27.8724 31.832L25.2592 25.8912Z" fill="white"/>
</svg>
