<svg width="512" height="96" viewBox="0 0 512 96" fill="none" xmlns="http://www.w3.org/2000/svg">
<path d="M96 0H0V96H96V0Z" fill="#73CF11"/>
<path d="M200 0H104V96H200V0Z" fill="#73CF11"/>
<path d="M304 0H208V96H304V0Z" fill="#73CF11"/>
<path d="M408 0H312V96H408V0Z" fill="#73CF11"/>
<path d="M512 0H416V96H512V0Z" fill="#DCDCE6"/>
<path d="M48.0004 64.6999L62.6004 61L68.7004 79.8L48.0004 64.6999ZM81.6004 40.4H55.9004L48.0004 16.2L40.1004 40.4H14.4004L35.2004 55.4L27.3004 79.5999L48.1004 64.5999L60.9004 55.4L81.6004 40.4Z" fill="white"/>
<path d="M152 64.6999L166.6 61L172.7 79.8L152 64.6999ZM185.6 40.4H159.9L152 16.2L144.1 40.4H118.4L139.2 55.4L131.3 79.5999L152.1 64.5999L164.9 55.4L185.6 40.4Z" fill="white"/>
<path d="M256 64.6999L270.6 61L276.7 79.8L256 64.6999ZM289.6 40.4H263.9L256 16.2L248.1 40.4H222.4L243.2 55.4L235.3 79.5999L256.1 64.5999L268.9 55.4L289.6 40.4Z" fill="white"/>
<path d="M360 64.6999L374.6 61L380.7 79.8L360 64.6999ZM393.6 40.4H367.9L360 16.2L352.1 40.4H326.4L347.2 55.4L339.3 79.5999L360.1 64.5999L372.9 55.4L393.6 40.4Z" fill="white"/>
<path d="M464 64.6999L478.6 61L484.7 79.8L464 64.6999ZM497.6 40.4H471.9L464 16.2L456.1 40.4H430.4L451.2 55.4L443.3 79.5999L464.1 64.5999L476.9 55.4L497.6 40.4Z" fill="white"/>
</svg>
