<svg width="17" height="16" viewBox="0 0 17 16" fill="none" xmlns="http://www.w3.org/2000/svg">
<g clip-path="url(#clip0_199_2073)">
<path fill-rule="evenodd" clip-rule="evenodd" d="M8.23856 1.18144L10.7907 0.078125L12.1899 2.46017L14.904 3.06673L14.6362 5.81565L16.4746 7.90178L14.6429 9.96917L14.904 12.7382L12.206 13.334L10.7907 15.7268L8.2573 14.6221L5.70521 15.7268L4.30597 13.3447L1.59186 12.7382L1.85966 9.98791L0.0212402 7.90178L1.85296 5.8344L1.59186 3.06673L4.28991 2.47088L5.70521 0.078125L8.23856 1.18144Z" fill="#10A64A"/>
<path d="M5.09851 8.78159C4.28575 7.90723 5.53368 6.60441 6.43749 7.42922C6.75617 7.71978 7.21946 8.14423 7.54081 8.43211L10.0179 5.38861C10.8802 4.49685 12.242 5.80637 11.3904 6.70349L8.27859 10.4151C8.10839 10.5949 7.87502 10.7015 7.6277 10.7125C7.38039 10.7235 7.13848 10.638 6.953 10.4741C6.42544 9.97194 5.65151 9.25023 5.09851 8.78159Z" fill="white"/>
</g>
<defs>
<clipPath id="clip0_199_2073">
<rect width="16.4534" height="15.6487" fill="white" transform="translate(0.0212402 0.078125)"/>
</clipPath>
</defs>
</svg>
